<?xml version="1.0" encoding="utf-8"?>
<!-- Generator: Adobe Illustrator 28.0.0, SVG Export Plug-In . SVG Version: 6.00 Build 0)  -->
<svg version="1.1" id="Layer_1" xmlns="http://www.w3.org/2000/svg" xmlns:xlink="http://www.w3.org/1999/xlink" x="0px" y="0px"
	 viewBox="0 0 850.39 651.97" style="enable-background:new 0 0 850.39 651.97;" xml:space="preserve">
<style type="text/css">
	.st0{fill:#333333;}
</style>
<g>
	<g>
		<path class="st0" d="M387,365.91h8.82v3.1h-11.97v-21.64H387V365.91z"/>
		<path class="st0" d="M415.21,368.95l8.81-21.61l8.82,21.61h-3.21l-0.65-1.71h-9.88l-0.68,1.71H415.21z M420.16,364.47h7.72
			l-3.86-9.9L420.16,364.47z"/>
		<path class="st0" d="M464.09,357.54c0.86,0.47,1.56,1.15,2.08,2.05c0.52,0.9,0.78,1.91,0.78,3.05c0,0.87-0.17,1.68-0.5,2.45
			c-0.34,0.77-0.79,1.44-1.36,2.02c-0.57,0.58-1.24,1.04-2,1.37c-0.77,0.33-1.58,0.5-2.45,0.5h-8.4v-21.61h8.26
			c0.79,0,1.53,0.15,2.24,0.46c0.71,0.3,1.33,0.72,1.86,1.25c0.53,0.53,0.95,1.15,1.25,1.86c0.31,0.71,0.46,1.46,0.46,2.27
			c0,0.49-0.06,0.95-0.19,1.37c-0.13,0.42-0.29,0.81-0.5,1.17c-0.21,0.35-0.44,0.68-0.71,0.99
			C464.64,357.03,464.37,357.3,464.09,357.54z M455.4,356.3h4.57c0.43,0,0.83-0.08,1.21-0.24c0.37-0.16,0.7-0.38,0.97-0.66
			c0.27-0.28,0.49-0.61,0.65-0.99c0.16-0.37,0.24-0.77,0.24-1.18c0-0.88-0.29-1.62-0.88-2.21c-0.59-0.59-1.32-0.88-2.18-0.88h-4.57
			V356.3z M460.11,366.21c0.49,0,0.95-0.1,1.39-0.3c0.43-0.2,0.81-0.46,1.13-0.78c0.33-0.32,0.58-0.7,0.77-1.14
			c0.19-0.43,0.28-0.88,0.28-1.36c0-0.49-0.09-0.95-0.28-1.38c-0.19-0.43-0.44-0.81-0.77-1.13c-0.32-0.32-0.7-0.58-1.13-0.77
			c-0.43-0.19-0.89-0.28-1.39-0.28h-4.72v7.14H460.11z"/>
	</g>
	<g>
		<path class="st0" d="M216.89,300.24c0.02,0.32,0.02,0.64,0.02,0.96c0,0.45-0.02,0.88-0.05,1.29c-0.03,0.41-0.08,0.83-0.14,1.24
			c-0.29,2.1-0.93,4.07-1.94,5.9c-1,1.83-2.26,3.42-3.78,4.76c-1.51,1.34-3.25,2.39-5.19,3.15c-1.95,0.77-4.02,1.15-6.22,1.15
			c-2.39,0-4.65-0.46-6.77-1.39c-2.12-0.92-3.96-2.18-5.52-3.75c-1.56-1.58-2.8-3.43-3.71-5.55c-0.91-2.12-1.36-4.39-1.36-6.81
			c0-2.42,0.45-4.69,1.36-6.81c0.91-2.12,2.14-3.97,3.71-5.55c1.56-1.58,3.4-2.83,5.52-3.75c2.12-0.92,4.37-1.39,6.77-1.39
			c1.82,0,3.54,0.26,5.19,0.79c1.64,0.53,3.15,1.27,4.52,2.22c1.37,0.96,2.59,2.1,3.66,3.42c1.07,1.32,1.94,2.77,2.61,4.33h-5.88
			c-1.05-1.78-2.46-3.22-4.23-4.3c-1.77-1.08-3.72-1.63-5.86-1.63c-1.66,0-3.22,0.33-4.69,1.01c-1.47,0.67-2.74,1.58-3.83,2.72
			c-1.08,1.15-1.94,2.49-2.58,4.02c-0.64,1.53-0.96,3.17-0.96,4.92c0,1.75,0.32,3.4,0.96,4.93c0.64,1.53,1.5,2.87,2.58,4.02
			c1.08,1.15,2.36,2.05,3.83,2.73c1.46,0.67,3.03,1,4.69,1c1.43,0,2.8-0.25,4.11-0.76c1.31-0.51,2.48-1.22,3.51-2.13
			c1.04-0.91,1.91-1.98,2.63-3.23c0.72-1.24,1.22-2.58,1.51-4.02h-12.24v-4.49h12.33h5.36
			C216.85,299.59,216.88,299.93,216.89,300.24z"/>
		<path class="st0" d="M265.83,283.51c2.42,0,4.7,0.46,6.84,1.39c2.14,0.93,3.99,2.18,5.57,3.78c1.58,1.59,2.82,3.47,3.73,5.62
			c0.91,2.15,1.36,4.46,1.36,6.91c0,2.42-0.45,4.7-1.36,6.84c-0.91,2.14-2.15,4-3.73,5.59c-1.58,1.59-3.43,2.85-5.57,3.78
			c-2.13,0.92-4.41,1.39-6.84,1.39c-2.42,0-4.69-0.46-6.81-1.39c-2.12-0.92-3.97-2.18-5.54-3.78c-1.58-1.59-2.82-3.46-3.73-5.59
			c-0.91-2.13-1.36-4.41-1.36-6.84c0-2.45,0.45-4.76,1.36-6.91c0.91-2.15,2.15-4.02,3.73-5.62c1.58-1.59,3.42-2.85,5.54-3.78
			C261.13,283.97,263.41,283.51,265.83,283.51z M265.83,313.87c1.66,0,3.23-0.33,4.71-1c1.48-0.67,2.77-1.57,3.87-2.71
			c1.1-1.14,1.97-2.48,2.61-4.03c0.64-1.54,0.96-3.18,0.96-4.93c0-1.75-0.32-3.4-0.96-4.95c-0.64-1.56-1.51-2.91-2.61-4.07
			c-1.1-1.16-2.39-2.07-3.87-2.74c-1.48-0.67-3.05-1-4.71-1c-1.66,0-3.22,0.33-4.69,1c-1.47,0.67-2.75,1.58-3.85,2.74
			c-1.1,1.16-1.97,2.52-2.61,4.07c-0.64,1.56-0.96,3.21-0.96,4.95c0,1.75,0.32,3.39,0.96,4.93c0.64,1.54,1.51,2.88,2.61,4.03
			c1.1,1.14,2.38,2.05,3.85,2.71C262.61,313.54,264.17,313.87,265.83,313.87z"/>
		<path class="st0" d="M332.24,283.51c2.42,0,4.7,0.46,6.84,1.39c2.13,0.93,3.99,2.18,5.57,3.78c1.58,1.59,2.82,3.47,3.73,5.62
			c0.91,2.15,1.36,4.46,1.36,6.91c0,2.42-0.46,4.7-1.36,6.84c-0.91,2.14-2.15,4-3.73,5.59c-1.58,1.59-3.44,2.85-5.57,3.78
			c-2.14,0.92-4.42,1.39-6.84,1.39c-2.42,0-4.69-0.46-6.81-1.39c-2.12-0.92-3.97-2.18-5.55-3.78c-1.58-1.59-2.82-3.46-3.73-5.59
			c-0.91-2.13-1.36-4.41-1.36-6.84c0-2.45,0.46-4.76,1.36-6.91c0.91-2.15,2.15-4.02,3.73-5.62c1.58-1.59,3.43-2.85,5.55-3.78
			C327.54,283.97,329.81,283.51,332.24,283.51z M332.24,313.87c1.66,0,3.23-0.33,4.71-1c1.48-0.67,2.77-1.57,3.87-2.71
			c1.1-1.14,1.97-2.48,2.61-4.03c0.64-1.54,0.96-3.18,0.96-4.93c0-1.75-0.32-3.4-0.96-4.95c-0.64-1.56-1.51-2.91-2.61-4.07
			c-1.1-1.16-2.39-2.07-3.87-2.74c-1.48-0.67-3.05-1-4.71-1c-1.66,0-3.22,0.33-4.69,1c-1.47,0.67-2.75,1.58-3.85,2.74
			c-1.1,1.16-1.97,2.52-2.61,4.07c-0.64,1.56-0.96,3.21-0.96,4.95c0,1.75,0.32,3.39,0.96,4.93c0.64,1.54,1.51,2.88,2.61,4.03
			c1.1,1.14,2.38,2.05,3.85,2.71C329.02,313.54,330.58,313.87,332.24,313.87z"/>
		<path class="st0" d="M393.43,283.65c2.36,0,4.57,0.46,6.62,1.39c2.06,0.92,3.85,2.18,5.38,3.78c1.53,1.59,2.74,3.45,3.63,5.57
			c0.89,2.12,1.34,4.39,1.34,6.81c0,2.42-0.43,4.69-1.29,6.81c-0.86,2.12-2.05,3.97-3.56,5.55c-1.51,1.58-3.31,2.83-5.38,3.75
			c-2.07,0.92-4.32,1.39-6.74,1.39H381.2v-35.05H393.43z M392.86,314.21c1.79,0,3.43-0.34,4.92-1.03c1.5-0.69,2.79-1.62,3.87-2.8
			c1.08-1.18,1.93-2.56,2.54-4.14c0.61-1.58,0.91-3.27,0.91-5.05c0-1.79-0.3-3.47-0.91-5.05c-0.61-1.58-1.46-2.96-2.56-4.14
			c-1.1-1.18-2.4-2.11-3.9-2.8c-1.5-0.69-3.12-1.03-4.88-1.03h-6.55v26.06H392.86z"/>
		<path class="st0" d="M465.06,283.7h5.31l-14.25,35.19l-14.25-35.19h5.31l8.94,21.99L465.06,283.7z"/>
		<path class="st0" d="M501.82,283.65h5.12v35.05h-5.12V283.65z"/>
		<path class="st0" d="M557.62,300.15c1.4,0.77,2.53,1.87,3.37,3.32c0.84,1.45,1.27,3.1,1.27,4.95c0,1.4-0.27,2.72-0.81,3.97
			c-0.54,1.24-1.28,2.34-2.2,3.28c-0.92,0.94-2.01,1.68-3.25,2.22c-1.24,0.54-2.57,0.81-3.97,0.81H538.4v-35.05h13.39
			c1.27,0,2.49,0.25,3.63,0.74c1.15,0.5,2.15,1.17,3.01,2.03c0.86,0.86,1.54,1.87,2.03,3.01c0.49,1.15,0.74,2.38,0.74,3.68
			c0,0.8-0.1,1.54-0.31,2.22c-0.21,0.69-0.48,1.32-0.81,1.89c-0.33,0.57-0.72,1.11-1.15,1.6
			C558.5,299.33,558.06,299.77,557.62,300.15z M543.51,298.14h7.41c0.7,0,1.35-0.13,1.96-0.38c0.61-0.25,1.13-0.61,1.58-1.08
			c0.45-0.46,0.8-1,1.05-1.6c0.25-0.6,0.38-1.24,0.38-1.91c0-1.43-0.48-2.63-1.43-3.58c-0.96-0.96-2.14-1.44-3.54-1.44h-7.41V298.14
			z M551.16,314.21c0.79,0,1.54-0.16,2.25-0.48c0.7-0.32,1.32-0.74,1.84-1.27c0.53-0.53,0.94-1.14,1.24-1.84
			c0.3-0.7,0.46-1.43,0.46-2.2c0-0.8-0.15-1.55-0.46-2.25c-0.3-0.7-0.72-1.31-1.24-1.84c-0.53-0.53-1.14-0.94-1.84-1.24
			c-0.7-0.3-1.45-0.45-2.25-0.45h-7.65v11.57H551.16z"/>
		<path class="st0" d="M598.78,313.58h15.58v5.02h-20.65v-34.9h20.32v4.92h-15.25v5.52v2.86v3.48h13.72v4.78h-13.72V313.58z"/>
		<path class="st0" d="M665.05,301.25c0.22,0.16,0.43,0.34,0.62,0.55c0.19,0.21,0.37,0.41,0.53,0.6c0.73,0.92,1.31,1.94,1.72,3.04
			c0.41,1.1,0.62,2.25,0.62,3.46c0,0.29-0.02,0.51-0.05,0.67c-0.1,1.78-0.64,3.39-1.63,4.83c-0.89,1.34-2.04,2.4-3.44,3.18
			c-1.4,0.78-2.96,1.17-4.68,1.17h-3.16c-1.72,0-3.28-0.39-4.69-1.17c-1.4-0.78-2.55-1.84-3.44-3.18c-0.25-0.38-0.51-0.83-0.76-1.34
			l4.45-3.44c0.1,0.61,0.29,1.17,0.6,1.7c0.3,0.53,0.68,0.99,1.12,1.39c0.45,0.4,0.96,0.71,1.53,0.93c0.57,0.22,1.18,0.33,1.82,0.33
			h1.91c1.31,0,2.44-0.42,3.39-1.27c0.96-0.84,1.53-1.89,1.72-3.13c0-0.13,0.01-0.26,0.02-0.38c0.02-0.13,0.02-0.26,0.02-0.38
			c0-0.7-0.13-1.36-0.38-1.96c-0.25-0.6-0.61-1.14-1.05-1.6c-0.45-0.46-0.97-0.84-1.58-1.12c-0.61-0.29-1.24-0.45-1.91-0.48h-2.72
			h-0.19c-1.18-0.03-2.29-0.26-3.32-0.69c-1.04-0.43-1.97-1.01-2.8-1.75c-0.45-0.32-0.83-0.7-1.15-1.15
			c-0.73-0.92-1.31-1.93-1.72-3.04c-0.41-1.1-0.62-2.25-0.62-3.47v-0.67c0.16-1.82,0.72-3.43,1.67-4.83
			c0.89-1.34,2.04-2.4,3.44-3.18c1.4-0.78,2.96-1.17,4.69-1.17h3.11c1.72,0,3.29,0.39,4.71,1.17c1.42,0.78,2.57,1.84,3.47,3.18
			c0.1,0.16,0.2,0.33,0.31,0.53c0.11,0.19,0.21,0.37,0.31,0.53l-4.35,3.39c-0.29-1.15-0.89-2.1-1.82-2.87
			c-0.92-0.76-1.99-1.15-3.2-1.15h-1.91c-0.64,0-1.25,0.11-1.84,0.33c-0.59,0.22-1.11,0.53-1.55,0.93c-0.45,0.4-0.82,0.87-1.12,1.41
			c-0.3,0.54-0.5,1.12-0.6,1.72c-0.03,0.13-0.05,0.26-0.05,0.38c0,0.13,0,0.26,0,0.38c0,0.7,0.13,1.35,0.38,1.96
			c0.25,0.61,0.61,1.14,1.05,1.6c0.45,0.46,0.97,0.84,1.58,1.12c0.61,0.29,1.24,0.45,1.91,0.48h2.73h0.19
			c1.18,0.03,2.29,0.26,3.32,0.69C663.29,299.93,664.22,300.52,665.05,301.25z"/>
	</g>
</g>
</svg>
