<?xml version="1.0" encoding="utf-8"?>
<!-- Generator: Adobe Illustrator 28.0.0, SVG Export Plug-In . SVG Version: 6.00 Build 0)  -->
<svg version="1.1" id="Layer_1" xmlns="http://www.w3.org/2000/svg" xmlns:xlink="http://www.w3.org/1999/xlink" x="0px" y="0px"
	 viewBox="0 0 901.42 634.96" style="enable-background:new 0 0 901.42 634.96;" xml:space="preserve">
<style type="text/css">
	.st0{fill:#333333;}
</style>
<path class="st0" d="M690.52,323.81c0-25.87-8.41-49.81-22.62-69.26c2.84-3.2,4.58-7.4,4.58-12c0-9.65-7.58-17.54-17.1-18.08
	c-3.67-23.89-14.66-46.86-33.02-65.22c-17.87-17.87-40.47-29.27-64.97-33.06c-0.68-9.38-8.52-16.81-18.07-16.81
	c-4.58,0-8.76,1.72-11.96,4.54c-19.5-14.34-43.55-22.83-69.56-22.83c-25.93,0-49.91,8.45-69.38,22.7
	c-3.21-2.83-7.41-4.57-12.02-4.57c-9.62,0-17.51,7.5-18.15,16.96c-24.52,3.79-47.13,15.19-65.01,33.06
	c-18.32,18.32-29.3,41.23-32.99,65.06c-9.52,0.58-17.09,8.49-17.09,18.16c0,4.59,1.72,8.77,4.52,11.98
	c-14.67,20.02-22.6,44.08-22.6,69.36c0,25.86,8.4,49.78,22.59,69.22c-2.86,3.23-4.62,7.46-4.62,12.11c0,9.69,7.58,17.63,17.13,18.24
	c3.79,24.51,15.19,47.12,33.06,65c17.94,17.94,40.65,29.36,65.26,33.11c0.59,9.38,8.39,16.83,17.92,16.83
	c4.57,0,8.73-1.73,11.9-4.54c19.48,14.3,43.5,22.77,69.47,22.77c25.94,0,49.94-8.46,69.42-22.73c3.19,2.85,7.38,4.6,11.98,4.6
	c9.57,0,17.4-7.5,17.97-16.94c24.59-3.76,47.27-15.17,65.19-33.1c17.89-17.89,29.29-40.52,33.07-65.06
	c9.38-0.62,16.82-8.43,16.82-17.96c0-4.59-1.74-8.78-4.58-11.96C682.03,373.89,690.52,349.83,690.52,323.81z M663.66,390.02
	c-2.41-1.49-5.18-2.42-8.16-2.63c-3.59-23.85-14.41-45.9-31.35-63.58c17.23-18,27.64-40.14,31.21-63.17
	c3.13-0.17,6.04-1.14,8.55-2.7c13.44,18.53,21.39,41.29,21.39,65.88C685.29,348.55,677.25,371.43,663.66,390.02z M656.65,398.7
	c-0.11-1.99-0.27-3.97-0.47-5.95c1.53,0.24,2.96,0.75,4.26,1.47C659.21,395.75,657.95,397.24,656.65,398.7z M528.07,526.56
	c-0.75-1.34-1.26-2.81-1.48-4.39c2.02,0.21,4.05,0.38,6.09,0.49C531.18,524,529.64,525.3,528.07,526.56z M526.94,516.94
	c1.51-5.38,6.41-9.36,12.26-9.36c2.26,0,4.35,0.64,6.2,1.67c-2.33,2.9-4.8,5.68-7.41,8.33
	C534.28,517.55,530.59,517.34,526.94,516.94z M549.35,512.68c0.96,1.26,1.67,2.69,2.11,4.25c-2.04,0.22-4.09,0.4-6.16,0.51
	C546.7,515.89,548.05,514.3,549.35,512.68z M548.63,505.05c-2.75-1.7-5.97-2.69-9.43-2.69c-8.52,0-15.65,5.95-17.53,13.9
	c-21.25-3.3-40.99-12.59-57.21-27.04c40.65-1.61,77.57-17.93,105.59-43.79C568.76,467.64,561,488.13,548.63,505.05z M393.92,516.26
	c-1.86-7.95-8.99-13.9-17.49-13.9c-3.47,0-6.7,1-9.45,2.71c-12.39-16.95-20.16-37.46-21.44-59.7
	c28.01,25.88,64.94,42.23,105.6,43.85C434.91,503.67,415.17,512.96,393.92,516.26z M382.92,522.66c2.03-0.11,4.06-0.28,6.08-0.49
	c-0.23,1.57-0.74,3.03-1.49,4.36C385.94,525.28,384.41,523.99,382.92,522.66z M370.29,517.44c-2.04-0.11-4.07-0.28-6.09-0.5
	c0.43-1.55,1.13-2.97,2.07-4.22C367.57,514.32,368.9,515.9,370.29,517.44z M377.6,517.59c-2.6-2.65-5.06-5.42-7.39-8.31
	c1.85-1.04,3.95-1.69,6.22-1.69c5.84,0,10.73,3.98,12.23,9.36C385.01,517.34,381.32,517.55,377.6,517.59z M254.88,393.85
	c1.4-0.81,2.95-1.36,4.61-1.6c-0.23,2.13-0.41,4.28-0.53,6.44C257.55,397.12,256.2,395.5,254.88,393.85z M264.17,411.32
	c1.62,1.46,3.29,2.86,5,4.23c-1.32,0.99-2.82,1.73-4.46,2.17C264.48,415.6,264.29,413.47,264.17,411.32z M264.03,404
	c0.04-3.85,0.27-7.67,0.69-11.44c5.57,1.49,9.71,6.54,9.71,12.58c0,2.37-0.68,4.57-1.79,6.49
	C269.64,409.23,266.76,406.69,264.03,404z M265.42,387.31c3.35-21.1,12.61-40.7,26.97-56.83c1.63,40.66,17.97,77.58,43.85,105.59
	c-22.11-1.27-42.51-8.97-59.4-21.23c1.77-2.82,2.81-6.14,2.81-9.7C279.65,396.45,273.56,389.16,265.42,387.31z M259.01,248.78
	c0.12,2.17,0.3,4.34,0.54,6.5c-1.69-0.24-3.25-0.8-4.66-1.62C256.21,252,257.58,250.37,259.01,248.78z M274.35,242.47
	c0,5.97-4.08,10.97-9.58,12.47c-0.42-3.81-0.66-7.63-0.69-11.45c2.72-2.66,5.54-5.17,8.47-7.52
	C273.67,237.9,274.35,240.1,274.35,242.47z M264.25,236.16c0.11-2.06,0.3-4.11,0.52-6.16c1.57,0.43,3.02,1.13,4.29,2.07
	C267.43,233.39,265.82,234.75,264.25,236.16z M279.58,242.47c0-3.57-1.05-6.9-2.83-9.71c17.32-12.62,37.79-19.96,59.42-21.2
	c-25.86,28.01-42.17,64.93-43.79,105.59c-14.69-16.52-23.65-36.36-26.91-56.94C273.54,258.33,279.58,251.1,279.58,242.47z
	 M387.61,121.01c0.78,1.36,1.33,2.86,1.58,4.47c-2.08-0.22-4.17-0.4-6.27-0.51C384.44,123.6,386.01,122.29,387.61,121.01z
	 M388.92,130.71c-1.46,5.57-6.49,9.71-12.52,9.71c-2.35,0-4.52-0.67-6.43-1.77c2.4-3,4.94-5.88,7.63-8.62
	C381.41,130.08,385.18,130.3,388.92,130.71z M366.05,135.2c-0.99-1.32-1.73-2.83-2.16-4.47c2.12-0.24,4.26-0.42,6.41-0.54
	C368.83,131.81,367.42,133.49,366.05,135.2z M366.76,142.87c2.8,1.75,6.1,2.78,9.64,2.78c8.68,0,15.95-6.11,17.76-14.25
	c21.12,3.32,40.74,12.58,56.89,26.93c-40.63,1.64-77.52,17.98-105.51,43.84C346.83,180.11,354.52,159.74,366.76,142.87z
	 M521.6,131.38c1.77,8.15,9.04,14.28,17.71,14.28c3.51,0,6.77-1.02,9.55-2.75c12.21,16.84,19.88,37.18,21.18,59.21
	c-28-25.84-64.89-42.15-105.5-43.78C480.73,143.94,500.42,134.68,521.6,131.38z M532.68,124.97c-2.03,0.11-4.05,0.27-6.06,0.48
	c0.25-1.55,0.79-2.99,1.54-4.3C529.7,122.38,531.21,123.65,532.68,124.97z M545.31,130.19c2.17,0.12,4.32,0.31,6.46,0.55
	c-0.43,1.66-1.18,3.18-2.18,4.51C548.2,133.52,546.79,131.83,545.31,130.19z M537.99,130.04c2.7,2.75,5.25,5.64,7.66,8.66
	c-1.88,1.07-4.02,1.73-6.34,1.73c-6.01,0-11.04-4.16-12.46-9.73C530.53,130.29,534.24,130.08,537.99,130.04z M660.69,253.72
	c-1.4,0.8-2.96,1.34-4.63,1.56c0.23-2.14,0.42-4.28,0.53-6.42C658,250.44,659.36,252.07,660.69,253.72z M651.36,236.24
	c-1.53-1.37-3.1-2.7-4.7-4c1.24-0.93,2.66-1.63,4.2-2.06C651.08,232.2,651.25,234.22,651.36,236.24z M651.53,243.57
	c-0.04,3.79-0.27,7.57-0.69,11.34c-5.4-1.54-9.4-6.47-9.4-12.36c0-2.33,0.67-4.49,1.76-6.38
	C646.1,238.5,648.87,240.97,651.53,243.57z M650.13,260.17c-3.25,20.57-12.2,40.39-26.86,56.9c-1.63-40.62-17.94-77.52-43.78-105.51
	c22.16,1.3,42.61,9.04,59.51,21.38c-1.75,2.79-2.78,6.08-2.78,9.61C636.21,251.1,642.17,258.27,650.13,260.17z M475.42,306.2
	c11.53-17.83,17.99-38.45,18.65-60.08c18.19,8.52,32.91,23.24,41.43,41.44C513.86,288.21,493.24,294.67,475.42,306.2z
	 M532.31,292.92c-18.28,16.21-41.85,26.56-67.77,28.1C483.43,304.23,507.07,294.42,532.31,292.92z M460.59,317.08
	c1.54-25.92,11.9-49.49,28.11-67.77C487.19,274.54,477.39,298.19,460.59,317.08z M457.81,298.94
	c-4.45-20.78-14.47-39.95-29.31-55.72c9.15-3.34,19.03-5.17,29.33-5.17c10.3,0,20.19,1.83,29.34,5.18
	C472.77,258.54,462.4,277.67,457.81,298.94z M455.01,317.07c-17.23-19.41-26.58-43.4-28.04-67.79
	C443.74,268.19,453.53,291.83,455.01,317.07z M440.23,306.22c-17.82-11.54-38.43-18.01-60.06-18.67
	c8.52-18.19,23.24-32.91,41.43-41.43C422.24,267.11,428.44,287.95,440.23,306.22z M451.07,321.02c-25.92-1.54-49.5-11.9-67.78-28.11
	C408.52,294.41,432.17,304.22,451.07,321.02z M432.98,323.81c-21.26,4.58-40.39,14.93-55.69,29.31c-3.34-9.16-5.18-19.04-5.18-29.34
	c0-10.28,1.82-20.15,5.16-29.29C392.57,308.88,411.71,319.23,432.98,323.81z M451.06,326.6c-18.89,16.8-42.54,26.6-67.77,28.11
	C401.57,338.5,425.14,328.14,451.06,326.6z M440.18,341.43c-11.52,17.8-17.97,38.39-18.64,59.99c-18.14-8.52-32.83-23.2-41.34-41.34
	C401.79,359.4,422.38,352.95,440.18,341.43z M455.01,330.55c-1.48,25.27-11.29,48.95-28.11,67.86
	C428.38,373.15,438.19,349.47,455.01,330.55z M457.81,348.68c4.59,21.25,14.94,40.36,29.32,55.66c-9.15,3.34-19.01,5.16-29.29,5.16
	c-10.28,0-20.14-1.82-29.28-5.16C443.37,388.59,453.37,369.44,457.81,348.68z M460.58,330.54c16.8,18.9,26.61,42.55,28.12,67.79
	C472.48,380.04,462.12,356.47,460.58,330.54z M475.42,341.43c17.82,11.53,38.43,17.99,60.05,18.64
	c-8.53,18.16-23.23,32.86-41.4,41.37C493.4,379.84,486.94,359.24,475.42,341.43z M464.54,326.6c25.91,1.54,49.48,11.89,67.76,28.1
	C507.07,353.2,483.43,343.4,464.54,326.6z M482.62,323.81c21.29-4.59,40.44-14.96,55.75-29.37c3.34,9.16,5.17,19.04,5.17,29.33
	c0,10.32-1.84,20.22-5.19,29.39C523.05,338.76,503.9,328.4,482.62,323.81z M496.39,241.43c19.48-18.09,45.35-29.35,73.8-30.01
	c-0.66,28.46-11.92,54.34-30.01,73.81C531.15,266.02,515.6,250.46,496.39,241.43z M457.83,232.83c-10.88,0-21.32,1.93-31,5.45
	c0.99-26.56,11.31-52.82,30.97-73.41c19.11,20,30.01,45.83,31.02,73.41C479.14,234.75,468.71,232.83,457.83,232.83z M375.46,285.28
	c-18.11-19.48-29.4-45.38-30.06-73.86c27.67,0.63,53.66,11.2,73.88,30.01C400.05,250.46,384.49,266.04,375.46,285.28z
	 M366.88,323.78c0,10.9,1.93,21.36,5.46,31.06c-27.62-0.99-53.48-11.9-73.5-31.02c20.02-19.12,45.87-30.03,73.48-31.03
	C368.81,302.47,366.88,312.9,366.88,323.78z M419.33,406.15C399.1,425,373.1,435.58,345.4,436.21
	c0.66-28.49,11.96-54.39,30.08-73.88C384.52,381.56,400.09,397.13,419.33,406.15z M457.83,414.73c10.88,0,21.32-1.93,30.99-5.45
	c-0.99,27.61-11.9,53.46-31.02,73.48c-19.12-20.02-30.03-45.88-31.02-73.5C436.47,412.8,446.93,414.73,457.83,414.73z
	 M540.15,362.38c18.1,19.48,29.37,45.36,30.04,73.83c-28.48-0.66-54.37-11.95-73.85-30.06
	C515.56,397.13,531.12,381.58,540.15,362.38z M548.77,323.78c0-10.88-1.92-21.31-5.44-30.98c27.59,1.01,53.41,11.92,73.42,31.02
	c-20.01,19.11-45.85,30.02-73.44,31.02C546.84,345.14,548.77,334.68,548.77,323.78z M545.1,287.61
	c17.62-19.49,28.82-44.89,30.23-72.83c25.32,27.28,41.27,63.34,42.73,103.06C597.85,299.54,572.33,288.96,545.1,287.61z M494,236.51
	c-1.34-27.23-11.92-52.76-30.23-72.96c39.72,1.46,75.78,17.4,103.06,42.72C538.89,207.69,513.5,218.89,494,236.51z M421.67,236.48
	c-20.17-18.27-45.66-28.84-72.84-30.21c27.27-25.31,63.31-41.26,103.01-42.73C433.05,184.32,422.99,210.22,421.67,236.48z
	 M370.49,287.61c-27.2,1.35-52.7,11.91-72.89,30.18c1.46-39.67,17.39-75.69,42.67-102.95C341.69,242.76,352.89,268.13,370.49,287.61
	z M370.5,360.02c-17.59,19.46-28.79,44.82-30.22,72.71c-25.27-27.24-41.19-63.24-42.67-102.88
	C317.79,348.11,343.3,358.67,370.5,360.02z M421.61,411.19c1.36,27.17,11.92,52.63,30.17,72.81c-39.64-1.48-75.64-17.4-102.88-42.66
	C376.02,439.96,401.46,429.42,421.61,411.19z M494.01,411.12c19.48,17.6,44.85,28.8,72.76,30.23
	c-27.25,25.27-63.27,41.19-102.93,42.66C482.1,463.82,492.66,438.32,494.01,411.12z M545.1,360.01
	c27.23-1.35,52.75-11.93,72.96-30.23c-1.47,39.69-17.41,75.73-42.73,103C573.91,404.86,562.71,379.49,545.1,360.01z M623.27,330.54
	c14.44,16.24,23.72,35.98,26.99,57.24c-8.03,1.82-14.05,9-14.05,17.57c0,3.45,0.99,6.66,2.67,9.4
	c-16.9,12.31-37.33,20.03-59.47,21.32C605.29,408.08,621.62,371.18,623.27,330.54z M641.44,405.35c0-5.91,4.05-10.85,9.5-12.31
	c0.39,3.62,0.59,7.28,0.63,10.97c-2.69,2.65-5.52,5.15-8.47,7.52C642.08,409.69,641.44,407.6,641.44,405.35z M651.43,411.33
	c-0.11,2.12-0.3,4.22-0.53,6.32c-1.61-0.44-3.09-1.17-4.38-2.16C648.19,414.14,649.83,412.76,651.43,411.33z M667.26,242.55
	c0,2.91-1,5.56-2.63,7.72c-2.48-3.09-5.1-6.05-7.87-8.87c-0.03-3.87-0.26-7.73-0.68-11.58
	C662.37,230.68,667.26,236.03,667.26,242.55z M650.16,224.93c-2.93,0.7-5.58,2.1-7.77,4.03c-18.85-13.86-41.96-22.22-66.97-22.77
	c-0.54-24.88-8.82-47.87-22.55-66.66c2.01-2.27,3.47-5.03,4.14-8.09c23.25,3.69,44.69,14.55,61.65,31.51
	C636.12,180.41,646.6,202.22,650.16,224.93z M539.31,114.61c6.43,0,11.72,4.73,12.7,10.88c-3.92-0.42-7.88-0.66-11.87-0.69
	c-2.72-2.66-5.56-5.19-8.52-7.59C533.78,115.6,536.42,114.61,539.31,114.61z M523.96,117.92c-1.52,2.42-2.48,5.21-2.71,8.21
	c-23.8,3.61-45.8,14.42-63.45,31.33c-17.6-16.86-39.53-27.66-63.25-31.3c-0.21-3.06-1.18-5.92-2.73-8.38
	c18.55-13.49,41.34-21.47,65.98-21.47C482.52,96.32,505.38,104.35,523.96,117.92z M376.4,114.46c2.91,0,5.58,1,7.74,2.63
	c-3.02,2.43-5.92,5.01-8.69,7.72c-3.98,0.03-7.93,0.27-11.85,0.69C364.56,119.26,369.91,114.46,376.4,114.46z M296.94,162.95
	c16.98-16.98,38.43-27.84,61.7-31.52c0.68,3.04,2.13,5.79,4.13,8.05c-13.75,18.8-22.04,41.81-22.58,66.71
	c-24.37,0.53-47.5,8.39-66.85,22.59c-2.21-1.94-4.89-3.34-7.86-4.03C269.06,202.11,279.53,180.36,296.94,162.95z M248.38,242.47
	c0-6.53,4.87-11.91,11.17-12.8c-0.42,3.87-0.65,7.76-0.69,11.65c-2.79,2.84-5.42,5.79-7.88,8.85
	C249.37,248.01,248.38,245.37,248.38,242.47z M251.67,257.86c2.52,1.59,5.44,2.58,8.58,2.77c3.57,23.03,13.98,45.18,31.2,63.18
	c-16.82,17.56-27.6,39.43-31.27,63.08c-3.11,0.2-6.01,1.17-8.51,2.74c-13.42-18.52-21.36-41.26-21.36-65.83
	C230.31,299.79,237.81,276.92,251.67,257.86z M248.28,405.14c0-2.95,1.02-5.64,2.67-7.83c2.47,3.08,5.08,6.03,7.84,8.85
	c0.03,3.99,0.27,7.95,0.69,11.86C253.17,417.1,248.28,411.7,248.28,405.14z M265.41,422.97c3.04-0.69,5.78-2.14,8.03-4.13
	c18.81,13.76,41.83,22.06,66.73,22.6c0.55,25.03,8.92,48.16,22.8,67.01c-1.94,2.19-3.35,4.86-4.04,7.8
	c-23.38-3.64-44.94-14.52-62-31.57C279.96,467.69,269.1,446.24,265.41,422.97z M376.43,533.08c-6.41,0-11.67-4.76-12.57-10.92
	c3.83,0.4,7.69,0.62,11.59,0.66c2.75,2.69,5.62,5.24,8.61,7.66C381.93,532.09,379.3,533.08,376.43,533.08z M391.71,529.76
	c1.51-2.43,2.44-5.25,2.64-8.27c23.8-3.61,45.8-14.42,63.46-31.33c17.65,16.91,39.64,27.72,63.44,31.33
	c0.18,3.03,1.11,5.85,2.62,8.29c-18.56,13.52-41.39,21.53-66.06,21.53C433.11,551.31,410.28,543.29,391.71,529.76z M539.2,533.17
	c-2.91,0-5.56-1.01-7.72-2.66c3.01-2.43,5.9-4.99,8.66-7.7c3.92-0.03,7.82-0.26,11.67-0.67
	C550.95,528.36,545.65,533.17,539.2,533.17z M618.67,484.68c-17.04,17.04-38.58,27.91-61.94,31.56c-0.7-2.95-2.12-5.62-4.08-7.82
	c13.87-18.85,22.23-41.97,22.78-66.98c24.95-0.54,48.01-8.87,66.83-22.66c2.23,1.99,4.94,3.43,7.95,4.12
	C646.52,446.19,635.66,467.68,618.67,484.68z M667.03,405.35c0,6.41-4.75,11.68-10.9,12.6c0.42-3.89,0.65-7.82,0.68-11.79
	c2.66-2.71,5.19-5.55,7.58-8.51C666.02,399.8,667.03,402.45,667.03,405.35z"/>
</svg>
